<svg id="Layer_1" data-name="Layer 1" xmlns="http://www.w3.org/2000/svg" viewBox="0 0 787.92 172.91"><defs><style>.cls-1{fill:#fff;}</style></defs><polygon class="cls-1" points="58 59 73 59 73 44.28 73 29 58 29 58 15 44 15 44 0 29 0 29 15 15 15 15 29 0 29 0 44.28 0 59 15 59 15 44 29.52 44 29.71 44 43.88 44 44.25 44 58 44 58 59 44 59 44 74 58 74 58 59"/><polygon class="cls-1" points="58 74 58 89 44 89 44 103 30 103 30 89 44 89 44 74 29 74 29 89 16 89 16 74 0 74 0 88.45 0 103 15 103 15 118 29 118 29 133 44 133 44 118 58 118 58 103 73 103 73 88.45 73 74 58 74"/><path class="cls-1" d="M116.57,44.08c6.62-10.7,16.35-16,29.19-16C173.2,29.09,186.82,47,186.82,82c0,34.25-15.95,51.57-47.87,52.15-32.11.2-48.26-15.18-48.26-46.12V.29h13c8.57,0,12.85,4.48,12.85,13Zm0,36.78c-.2,20.82,6.81,31.33,21.6,31.33s22.19-10.51,22.19-31.33c-.59-19.85-7.79-29.58-21.8-29.58S117.35,61,116.57,80.86Z"/><path class="cls-1" d="M211.92.29c8.57,0,12.65,4.28,12.46,12.65v7.59H198.5V.29Zm0,29.39c8.37,0,12.46,4.08,12.46,12.45v90.5H198.5V29.68Z"/><path class="cls-1" d="M267.58,48.17h-2.73v57c0,4.28,2.53,6.61,7.59,6.61h8v19.66a141.48,141.48,0,0,1-27.24-.2c-9.73-1-14.4-7-14.21-18.48V.29H252.4c6.81,0,12.45,6.23,12.45,13V29.68h15.57v5.64A12.59,12.59,0,0,1,267.58,48.17Z"/><path class="cls-1" d="M365.86,132.63C357.29,132,353,128,353,119.78V66.85c-.58-10.7-6.42-16-17.9-16s-17.32,5.26-17.52,16v65.78H291.32V72.1c0-29.38,14.79-44,44.18-44s43.78,14.6,43.59,44v60.53Z"/><path class="cls-1" d="M417.42,56.53H391.54c3.11-19.07,16.54-28.41,40.28-28.41,28.42,0,42.82,9.34,43.4,28.41v35c0,28.42-17.12,41.07-45,43-24.72,2-41.84-9.53-41.84-32.3C389,77.55,406.91,70.94,433,68.41c11.09-1.37,16.74-4.68,16.74-10.32-.59-5.84-6-8.76-16.74-8.76C423.84,49.33,418.79,51.67,417.42,56.53Zm32.7,33.87V80.86a112.51,112.51,0,0,1-20.63,6.23c-10.32,1.94-15.57,6.81-15.57,14.4.58,8.17,4.87,12.06,13,12.06C441.36,113.55,450.12,105,450.12,90.4Z"/><path class="cls-1" d="M513.56,160.07q0,12.84-12.85,12.84h-13V74.44C489,43.69,505,28.51,535.94,28.51q47.87,0,47.87,52c0,35-13.62,53.13-41.06,54.1-12.85,0-22.58-5.25-29.19-15.95Zm22-48.66c14,0,21.21-9.92,21.79-29.77,0-20.82-7.39-31.14-22.18-31.14s-21.8,10.32-21.6,31.14C514.33,101.49,521.54,111.41,535.55,111.41Z"/><path class="cls-1" d="M640.83,113.94c10.9,0,16.35-3.11,16.35-9.73,0-5.25-9-9.53-26.67-12.65-22.76-4.08-34.44-14.2-34.64-30.35,0-22.19,17.52-32.7,41.07-33.09q19.84,0,31.52,8.76,11.38,9,12.26,25.1H664.38c-6-.19-9.93-2.33-11.49-6.42-1.75-4.48-7-7-15.56-7-10.12,0-15.18,2.72-15.18,8s6.61,9.35,20,11.88c17.52,3.5,29,8,34.64,13.23A25.55,25.55,0,0,1,684,99.93c0,25.3-19.85,34.64-47.09,34.64-14.4,0-25.3-3.11-32.31-9.14C596.85,119.59,593,110.64,593,98.76h26.46C620,110.05,628.18,113.94,640.83,113.94Z"/><path class="cls-1" d="M741.24,135c-31.13-1-46.7-19.07-46.7-54.1s15.76-52.54,47.09-52.74q49.05,0,46.12,60.33H721.2c1,15.76,7.78,23.74,20.43,23.74,6,0,11.68-2.53,16.74-7.39a11.33,11.33,0,0,1,8.76-3.7H786.2C780.55,122.9,766.54,135,741.24,135ZM721.59,70h38.73c-1.56-13.62-8-20.63-19.08-20.63S723.53,56.34,721.59,70Z"/></svg>