<svg xmlns="http://www.w3.org/2000/svg" version="1.1" xmlns:xlink="http://www.w3.org/1999/xlink" xmlns:svgjs="http://svgjs.com/svgjs" width="64" height="64" x="0" y="0" viewBox="0 0 128 128" style="enable-background:new 0 0 64 64" xml:space="preserve" class=""><g><g fill="#000"><path fill-rule="evenodd" d="M37.5 29a2 2 0 0 1 2-2H41a2 2 0 1 1 0 4h-1.5a2 2 0 0 1-2-2zm-24 11.5a2 2 0 0 1 2-2H68a2 2 0 1 1 0 4H15.5a2 2 0 0 1-2-2zm6 12a2 2 0 0 1 2-2H23a2 2 0 1 1 0 4h-1.5a2 2 0 0 1-2-2zm8 0a2 2 0 0 1 2-2H64a2 2 0 1 1 0 4H29.5a2 2 0 0 1-2-2zm-21 11a2 2 0 0 1 2-2H48a2 2 0 1 1 0 4H8.5a2 2 0 0 1-2-2z" clip-rule="evenodd" fill="#ffffff" data-original="#000000" class=""></path><path d="M13 91.5a2 2 0 1 1 0-4h12v4z" fill="#ffffff" data-original="#000000" class=""></path><path fill-rule="evenodd" d="M46 29a2 2 0 0 1 2-2h32.5a2 2 0 0 1 2 2v60.5a2 2 0 0 1-2 2H46a2 2 0 1 1 0-4h32.5V31H48a2 2 0 0 1-2-2z" clip-rule="evenodd" fill="#ffffff" data-original="#000000" class=""></path><path d="M78.5 47.5a2 2 0 0 1 2-2h18.697a6.001 6.001 0 0 1 5.189 2.987L111.651 61h3.849a6 6 0 0 1 6 6v18.5a6 6 0 0 1-6 6h-7.75v-4h7.75a2 2 0 0 0 2-2V67a2 2 0 0 0-2-2h-4.625l-7.951 3.092c-.693.27-1.43.408-2.174.408H88.5a2 2 0 1 1 0-4h12.25c.248 0 .493-.046.724-.136l6.123-2.38-6.67-11.488a2 2 0 0 0-1.73-.996H82.5v38H88v4h-7.5a2 2 0 0 1-2-2z" fill="#ffffff" data-original="#000000" class=""></path><g fill-rule="evenodd" clip-rule="evenodd"><path d="M35 97.5a8 8 0 1 0 0-16 8 8 0 0 0 0 16zm0 4c6.627 0 12-5.373 12-12s-5.373-12-12-12-12 5.373-12 12 5.373 12 12 12zM98 97.5a8 8 0 1 0 0-16 8 8 0 0 0 0 16zm0 4c6.627 0 12-5.373 12-12s-5.373-12-12-12-12 5.373-12 12 5.373 12 12 12z" fill="#ffffff" data-original="#000000" class=""></path></g></g></g></svg>